<svg xmlns="http://www.w3.org/2000/svg" viewBox="0 0 145.4 25.6"><title>communication</title><g id="Слой_2" data-name="Слой 2"><g id="Слой_1-2" data-name="Слой 1"><path d="M0,14.1A7.9,7.9,0,0,1,7.9,6.2,7.9,7.9,0,1,1,7.9,22,7.9,7.9,0,0,1,0,14.1Zm11.4,0a3.4,3.4,0,0,0-3.5-3.5,3.4,3.4,0,0,0-3.5,3.5,3.4,3.4,0,0,0,3.5,3.5A3.4,3.4,0,0,0,11.4,14.1Z" fill="#efefef"/><path d="M20.7,13.9c0-4.8.9-7.4,5.7-9.7,3.2-1.6,4.5-2,5.4-4.1l3.7,2.1c-.6,2.5-2.5,3.6-5.6,4.8S26.5,8.8,26,9.9a6.1,6.1,0,0,1,4.1-1.4A6.4,6.4,0,0,1,36.4,15c0,4-2.9,7-7.7,7S20.7,18.5,20.7,13.9ZM31.9,15a3.1,3.1,0,0,0-3.3-3,3,3,0,0,0-3.2,2.9A3.1,3.1,0,0,0,28.7,18,3,3,0,0,0,31.9,15Z" fill="#efefef"/><path d="M64.7,17.4v8.2H60.3v-4H41.5V6.6H46V17.4h3.9V6.6h4.5V17.4h3.9V6.6h4.5V17.4Z" fill="#efefef"/><path d="M77,18a3.9,3.9,0,0,0,2.9-1.1l3.6,2.1A7.6,7.6,0,0,1,76.9,22c-5.1,0-8.3-3.4-8.3-7.9a7.7,7.7,0,0,1,8-7.9,7.6,7.6,0,0,1,7.6,7.9,8.7,8.7,0,0,1-.2,1.8H73.4C73.9,17.5,75.3,18,77,18Zm2.8-5.5a3.4,3.4,0,0,0-6.4,0Z" fill="#efefef"/><path d="M103.9,6.6v15H99.4V16.2H94.3v5.4H89.8V6.6h4.5V12h5.1V6.6Z" fill="#efefef"/><path d="M124.3,6.6v15h-4.4V14.1l-6.4,7.5h-3.3V6.6h4.4v7.5L121,6.6Z" fill="#efefef"/><path d="M138.2,18a3.9,3.9,0,0,0,2.9-1.1l3.6,2.1a7.6,7.6,0,0,1-6.5,3.1c-5.1,0-8.3-3.4-8.3-7.9a7.7,7.7,0,0,1,8-7.9,7.6,7.6,0,0,1,7.6,7.9,8.7,8.7,0,0,1-.2,1.8H134.6C135.1,17.5,136.5,18,138.2,18Zm2.8-5.5a3.4,3.4,0,0,0-6.4,0Z" fill="#efefef"/></g></g></svg>