<svg xmlns="http://www.w3.org/2000/svg" viewBox="0 0 182.4 28.3"><title>english-yes</title><g id="Слой_2" data-name="Слой 2"><g id="Слой_1-2" data-name="Слой 1"><path d="M8.4,18.3a3.9,3.9,0,0,0,2.9-1.1l3.6,2.1a7.6,7.6,0,0,1-6.5,3.1C3.2,22.3,0,18.9,0,14.4A7.7,7.7,0,0,1,8,6.5a7.6,7.6,0,0,1,7.6,7.9,8.7,8.7,0,0,1-.2,1.8H4.8C5.3,17.8,6.7,18.3,8.4,18.3Zm2.8-5.5a3.1,3.1,0,0,0-3.2-2.4,3.1,3.1,0,0,0-3.3,2.4Z" opacity="0.06"/><path d="M35.5,12.7v9.2H31V13.3a2.5,2.5,0,0,0-2.6-2.7c-1.6,0-2.8,1-2.8,3.1v8.2H21.1V6.9h4.5V8.3a5.1,5.1,0,0,1,4.3-1.8C33,6.5,35.5,8.6,35.5,12.7Z" opacity="0.06"/><path d="M57,6.9V21.1c0,5-3.9,7.2-7.9,7.2s-5.7-1.2-7.1-3.6l3.8-2.2a3.4,3.4,0,0,0,3.4,1.9c2.1,0,3.4-1.1,3.4-3.2V19.8a5.3,5.3,0,0,1-4.4,1.9,7.4,7.4,0,0,1-7.4-7.6,7.4,7.4,0,0,1,7.4-7.6,5.3,5.3,0,0,1,4.4,2V6.9Zm-4.4,7.2a3.6,3.6,0,0,0-7.3,0,3.6,3.6,0,0,0,7.3,0Z" opacity="0.06"/><path d="M63.3,0h4.5V21.9H63.3Z" opacity="0.06"/><path d="M73.7,2.9a2.7,2.7,0,1,1,5.4,0,2.7,2.7,0,1,1-5.4,0Zm.5,4h4.5v15H74.1Z" opacity="0.06"/><path d="M96.4,17.4c0,3.5-3,4.9-6.2,4.9s-5.3-1.1-6.5-3.6l3.9-2.2a2.5,2.5,0,0,0,2.5,1.8c1.1,0,1.6-.3,1.6-.9s-7.4-.8-7.4-6c0-3.3,2.8-4.9,5.9-4.9a6.6,6.6,0,0,1,5.8,3.2l-3.8,2.1a2.2,2.2,0,0,0-2-1.3c-.8,0-1.3.3-1.3.8S96.4,11.8,96.4,17.4Z" opacity="0.06"/><path d="M116.1,12.7v9.2h-4.5V13.3a2.5,2.5,0,0,0-2.6-2.7c-1.6,0-2.8,1-2.8,3.1v8.2h-4.5V.9h4.5V8.3a5.1,5.1,0,0,1,4.3-1.8C113.5,6.5,116.1,8.6,116.1,12.7Z" opacity="0.06"/><path d="M146.9,6.9l-5.1,14.5c-1.7,4.8-4.3,6.7-8.5,6.5V23.7c2.1,0,3.1-.7,3.8-2.5L131,6.9h5l3.3,9.2,2.8-9.2Z" opacity="0.06"/><path d="M158.6,18.3a3.9,3.9,0,0,0,2.9-1.1l3.6,2.1a7.6,7.6,0,0,1-6.5,3.1c-5.1,0-8.3-3.4-8.3-7.9a7.7,7.7,0,0,1,8-7.9,7.6,7.6,0,0,1,7.6,7.9,8.7,8.7,0,0,1-.2,1.8H155C155.5,17.8,156.9,18.3,158.6,18.3Zm2.8-5.5a3.4,3.4,0,0,0-6.4,0Z" opacity="0.06"/><path d="M182.4,17.4c0,3.5-3,4.9-6.2,4.9s-5.3-1.1-6.5-3.6l3.9-2.2a2.5,2.5,0,0,0,2.5,1.8c1.1,0,1.6-.3,1.6-.9s-7.4-.8-7.4-6c0-3.3,2.8-4.9,5.9-4.9a6.6,6.6,0,0,1,5.8,3.2l-3.8,2.1a2.2,2.2,0,0,0-2-1.3c-.8,0-1.3.3-1.3.8S182.4,11.8,182.4,17.4Z" opacity="0.06"/></g></g></svg>