<svg xmlns="http://www.w3.org/2000/svg" viewBox="0 0 130 130"><title>insta</title><g id="Слой_2" data-name="Слой 2"><g id="Var2"><g id="Иконки"><g id="instagram"><path d="M65,11.73c17.37,0,19.43.07,26.29.38a36,36,0,0,1,12.1,2.24A21.53,21.53,0,0,1,115.72,26.7,36.09,36.09,0,0,1,118,38.78c.31,6.86.38,8.92.38,26.29s-.07,19.43-.38,26.29a36.09,36.09,0,0,1-2.24,12.08,21.57,21.57,0,0,1-12.35,12.34A36.09,36.09,0,0,1,91.29,118c-6.86.31-8.92.38-26.29.38s-19.43-.07-26.29-.38a36.09,36.09,0,0,1-12.08-2.24,21.53,21.53,0,0,1-12.35-12.35A36.09,36.09,0,0,1,12,91.35c-.31-6.86-.38-8.92-.38-26.29s.07-19.43.38-26.29a36.09,36.09,0,0,1,2.24-12.08A21.53,21.53,0,0,1,26.63,14.34,36.09,36.09,0,0,1,38.71,12.1c6.86-.31,8.92-.38,26.29-.38M65,0C47.33,0,45.11.07,38.18.39a47.9,47.9,0,0,0-15.79,3,33.28,33.28,0,0,0-19,19,47.86,47.86,0,0,0-3,15.79C.07,45.12,0,47.33,0,65S.07,84.89.39,91.82a47.86,47.86,0,0,0,3,15.79,33.28,33.28,0,0,0,19,19,47.9,47.9,0,0,0,15.79,3c6.94.32,9.15.39,26.82.39s19.89-.07,26.82-.39a47.9,47.9,0,0,0,15.79-3,33.28,33.28,0,0,0,19-19,47.86,47.86,0,0,0,3-15.79c.32-6.94.39-9.16.39-26.82s-.07-19.89-.39-26.82a47.86,47.86,0,0,0-3-15.79,33.28,33.28,0,0,0-19-19,47.9,47.9,0,0,0-15.79-3C84.88.07,82.67,0,65,0Z"/><path d="M65,31.66A33.41,33.41,0,1,0,98.37,65.09v0A33.41,33.41,0,0,0,65,31.66Zm0,55.1A21.69,21.69,0,1,1,86.67,65.07h0A21.69,21.69,0,0,1,65,86.75Z"/><circle cx="99.71" cy="30.34" r="7.81"/></g></g></g></g></svg>