<?xml version="1.0" encoding="utf-8"?>
<!-- Generator: Adobe Illustrator 22.0.1, SVG Export Plug-In . SVG Version: 6.00 Build 0)  -->
<svg version="1.1" id="Слой_1" xmlns="http://www.w3.org/2000/svg" xmlns:xlink="http://www.w3.org/1999/xlink" x="0px" y="0px"
	 viewBox="0 0 327.6 167.4" style="enable-background:new 0 0 327.6 167.4;" xml:space="preserve">
<style type="text/css">
	.st0{fill:#2429FF;}
</style>
<g id="Слой_2_1_">
	<g id="Слой_1-2">
		<path class="st0" d="M8.7,19.8c2.1,0,4.2,0.7,5.9,2c1.8,1.6,3.4,3.4,4.9,5.4c4.4,5.7,8.5,11.8,15,15.3c7.4,4,16.1,4.4,23.8,1.1
			c7.1-3,11.6-8.8,16.2-14.8c3.1-4.1,6-8.4,11-9c1.9-0.1,3.7,0.3,5.4,1.1c2.1,1.1,3.9,3.2,5.9,5.7c3.4,4.2,7.9,10.8,13.3,14.6
			c6.7,4.5,15.1,5.8,22.9,3.5c7.5-2.2,12.7-7.6,17.3-13.6c1.8-2.3,3.2-4.4,4.6-6c1-1.2,2.2-2.4,3.4-3.4c-0.9,0.7,2.8-1.6,1.8-1.1
			c2.3-1.1,5-1.2,7.4-0.2c0.9,0.4,1.7,1,2.5,1.6c-0.9-0.7,0.3,0.3,0.4,0.4c0.8,0.8,1.6,1.6,2.3,2.4c3.5,4,7.1,10.1,12,14.2
			c13.1,11.1,30.7,7.6,41.1-5.2c3.8-4.8,6.9-10.4,11.3-12.9c3.9-2,8.6-1.1,11.5,2.1c4.5,4.7,7.8,10.9,13.2,15.7
			c7.1,6.4,17,8.7,26.2,6.1c8.2-2.4,13.6-8.6,18.5-15.2c1.8-2.6,3.8-5,6.1-7.2c1.8-1.6,4.1-2.5,6.4-2.5c11.6-0.3,11.6-18.3,0-18
			c-7.8,0.1-15.2,3.4-20.5,9.2c-4.9,5-7.3,10.4-12.2,14.6c-3.4,2.7-8.1,2.9-11.7,0.4c-0.6-0.4-4-4-4.5-4.7c-2.3-2.9-4.4-6-6.9-8.9
			C252.4,0,234.5-1.6,222.2,9.6c-4.8,4.4-7.9,10.2-11.9,14.3c-3.1,3.2-7.5,5-11.4,3.2c-4.9-2.3-7.7-7.7-11.5-12.5
			c-4.4-5.5-9.9-10.4-16.9-12c-8.2-2-16.9-0.2-23.6,5c-5.1,4-9.2,10.5-12.6,14.5c-3.7,4.3-6.7,6.7-11.9,5.4c-4.1-1-7.4-6-10.6-10.2
			c-4.6-6-9.6-11.5-17-14.1c-7.7-2.5-16.1-1.6-23,2.6C65.7,9.7,61,17.1,57.2,21.8c-4,4.8-8.3,7.7-13.3,5.4c-5.3-2.4-8.4-8.8-12.8-14
			C25.3,6.2,17.8,2.1,8.7,1.8C-2.9,1.5-2.9,19.5,8.7,19.8z"/>
		<path class="st0" d="M8.7,79.7c2.1,0,4.2,0.7,5.9,2c1.8,1.6,3.4,3.4,4.9,5.3c4.4,5.7,8.5,11.8,15,15.3c7.3,4,16.1,4.4,23.8,1.1
			c7.1-3,11.6-8.8,16.2-14.8c3.1-4.1,6-8.4,11-9c1.9-0.1,3.7,0.3,5.4,1.1c2.1,1.1,3.9,3.2,5.9,5.8c3.4,4.2,7.9,10.8,13.3,14.6
			c6.7,4.5,15.1,5.8,22.9,3.5c7.4-2.2,12.6-7.6,17.2-13.6c1.8-2.3,3.2-4.4,4.6-6c1-1.2,2.2-2.4,3.4-3.4c-0.9,0.7,2.8-1.6,1.8-1.1
			c2.3-1.1,5-1.2,7.4-0.2c0.9,0.4,1.8,0.9,2.6,1.5c-0.9-0.7,0.3,0.3,0.4,0.4c0.8,0.8,1.6,1.6,2.3,2.4c3.5,4,7.1,10.1,12,14.2
			c13.1,11.1,30.7,7.6,41.1-5.2c3.9-4.8,6.9-10.4,11.3-12.8c3.9-2,8.6-1.1,11.5,2.1c4.5,4.7,7.8,10.9,13.2,15.7
			c7.1,6.4,17,8.7,26.2,6.1c8.2-2.4,13.6-8.6,18.5-15.2c1.8-2.6,3.8-5,6.1-7.2c1.7-1.6,4-2.5,6.4-2.5c11.6-0.3,11.6-18.3,0-18
			c-7.8,0.2-15.2,3.5-20.5,9.2c-4.9,5-7.3,10.4-12.2,14.7c-3.4,2.7-8.1,2.9-11.7,0.4c-0.6-0.4-4-4-4.5-4.7c-2.3-2.9-4.4-6-6.9-8.8
			c-10.8-12.4-28.7-14.1-40.9-2.8c-4.8,4.4-7.9,10.2-11.9,14.3c-3.1,3.2-7.5,5-11.4,3.2c-4.9-2.3-7.7-7.7-11.5-12.5
			c-4.4-5.5-9.9-10.4-16.9-12c-8.2-2-16.9-0.2-23.6,5c-5.1,4-9.2,10.5-12.6,14.5c-3.7,4.3-6.7,6.7-11.9,5.4c-4.1-1-7.4-6-10.6-10.2
			c-4.6-6-9.6-11.5-17-14.1c-7.7-2.5-16.1-1.6-23,2.6C65.7,69.6,61,77,57.2,81.7c-4,4.8-8.3,7.7-13.3,5.4c-5.3-2.4-8.4-8.8-12.8-14
			c-5.8-7-13.3-11.1-22.4-11.4C-2.9,61.4-2.9,79.4,8.7,79.7z"/>
		<path class="st0" d="M8.7,139.6c2.1,0,4.2,0.7,5.9,2c1.8,1.7,3.4,3.5,4.9,5.4c4.4,5.7,8.5,11.8,15,15.3c7.3,4,16.1,4.4,23.8,1.1
			c7.1-3,11.6-8.8,16.2-14.9c3.1-4.1,6-8.4,11-9c1.9-0.1,3.7,0.3,5.4,1.1c2.1,1.1,3.9,3.2,5.9,5.8c3.4,4.2,7.9,10.8,13.3,14.6
			c6.7,4.5,15.1,5.8,22.9,3.5c7.5-2.2,12.7-7.6,17.3-13.6c1.8-2.3,3.2-4.4,4.6-6c1-1.2,2.2-2.4,3.4-3.4c-0.9,0.7,2.8-1.6,1.8-1.1
			c2.3-1.1,5-1.2,7.4-0.2c0.9,0.4,1.8,0.9,2.6,1.5c-0.9-0.7,0.3,0.3,0.4,0.4c0.8,0.8,1.6,1.6,2.3,2.4c3.5,3.9,7.1,10.1,12,14.2
			c13.1,11.1,30.7,7.6,41.1-5.2c3.9-4.8,6.9-10.4,11.3-12.8c3.9-2,8.6-1.1,11.5,2.1c4.5,4.7,7.8,10.9,13.3,15.7
			c7.1,6.4,17,8.7,26.2,6.1c8.2-2.4,13.6-8.6,18.5-15.2c1.8-2.6,3.8-5,6.1-7.2c1.7-1.6,4-2.5,6.4-2.5c11.6-0.3,11.6-18.3,0-18
			c-7.8,0.2-15.2,3.5-20.5,9.2c-4.9,5-7.3,10.4-12.2,14.6c-3.4,2.7-8.1,2.9-11.7,0.4c-0.6-0.4-4-4.1-4.5-4.7c-2.3-2.9-4.4-6-6.9-8.9
			c-10.8-12.4-28.7-14.1-40.9-2.8c-4.8,4.4-7.9,10.2-11.9,14.3c-3.1,3.2-7.5,5-11.4,3.2c-4.9-2.3-7.7-7.7-11.5-12.5
			c-4.4-5.5-9.9-10.4-16.9-12c-8.2-2-16.9-0.2-23.6,5c-5.1,4-9.2,10.5-12.6,14.5c-3.7,4.3-6.7,6.7-11.9,5.4c-4.1-1-7.4-6-10.6-10.2
			c-4.6-6-9.6-11.5-17-14.1c-7.7-2.5-16.1-1.6-23,2.6c-6.2,3.9-10.9,11.3-14.8,15.9c-4,4.8-8.3,7.7-13.3,5.4
			c-5.3-2.4-8.4-8.8-12.8-14c-5.8-6.9-13.3-11.1-22.4-11.3C-2.8,121.4-2.8,139.4,8.7,139.6L8.7,139.6z"/>
	</g>
</g>
</svg>
