<svg xmlns="http://www.w3.org/2000/svg" viewBox="0 0 80.04 138.22"><title>ok</title><g id="Слой_2" data-name="Слой 2"><g id="Var2"><g id="Иконки"><g id="ok"><path d="M40,71.34A35.67,35.67,0,1,0,4.36,35.67h0A35.7,35.7,0,0,0,40,71.34Zm0-50.43A14.77,14.77,0,1,1,25.26,35.68,14.77,14.77,0,0,1,40,20.91Z"/><path d="M54.46,100.44a67,67,0,0,0,20.69-8.58A10.45,10.45,0,1,0,64,74.16a45.27,45.27,0,0,1-48,0A10.45,10.45,0,0,0,4.89,91.86a67.09,67.09,0,0,0,20.71,8.58l-20,19.94a10.45,10.45,0,0,0,14.79,14.78L40,115.56l19.6,19.6A10.45,10.45,0,0,0,74.4,120.38Z"/></g></g></g></g></svg>