<svg xmlns="http://www.w3.org/2000/svg" viewBox="0 0 153.9 21.4"><title>praсtice</title><g id="Слой_2" data-name="Слой 2"><g id="Слой_1-2" data-name="Слой 1"><path d="M14.1,15.4H9.6V4.6H4.5V15.4H0V.4H14.1Z" fill="#efefef"/><path d="M36.5,7.9c0,4.5-3.2,7.9-7.2,7.9A5.6,5.6,0,0,1,24.9,14v7.4H20.4V.4h4.5V1.8A5.6,5.6,0,0,1,29.4,0C33.3,0,36.5,3.4,36.5,7.9ZM32,7.9a3.4,3.4,0,0,0-3.6-3.7,3.4,3.4,0,0,0-3.6,3.7,3.4,3.4,0,0,0,3.6,3.7A3.4,3.4,0,0,0,32,7.9Z" fill="#efefef"/><path d="M57.5.4v15H53V14a5.6,5.6,0,0,1-4.5,1.8c-3.9,0-7.2-3.4-7.2-7.9S44.6,0,48.5,0A5.6,5.6,0,0,1,53,1.8V.4ZM53,7.9a3.6,3.6,0,1,0-7.1,0,3.6,3.6,0,1,0,7.1,0Z" fill="#efefef"/><path d="M73.1,15.4,68.3,8.8v6.6H63.8V.4h4.5V7L72.8.4H78L72.6,7.9l5.6,7.5Z" fill="#efefef"/><path d="M95,4.7H90.5V15.4H86V4.7H81.5V.4H95Z" fill="#efefef"/><path d="M114,.4v15h-4.4V7.9l-6.4,7.5H99.9V.4h4.4V7.9L110.7.4Z" fill="#efefef"/><path d="M129.6,15.4l-4.8-6.6v6.6h-4.5V.4h4.5V7L129.3.4h5.3l-5.5,7.5,5.6,7.5Z" fill="#efefef"/><path d="M153.9.4v15h-4.5V14a5.6,5.6,0,0,1-4.5,1.8c-3.9,0-7.2-3.4-7.2-7.9S141,0,144.9,0a5.6,5.6,0,0,1,4.5,1.8V.4Zm-4.5,7.5a3.6,3.6,0,1,0-7.1,0,3.6,3.6,0,1,0,7.1,0Z" fill="#efefef"/></g></g></svg>