<svg xmlns="http://www.w3.org/2000/svg" viewBox="0 0 112.6 21.4"><title>repeat</title><g id="Слой_2" data-name="Слой 2"><g id="Слой_1-2" data-name="Слой 1"><path d="M14.1,15.4H9.6V4.6H4.5V15.4H0V.4H14.1Z" fill="#efefef"/><path d="M19.6,7.9a7.9,7.9,0,0,1,15.9,0,7.9,7.9,0,0,1-15.9,0ZM31,7.9a3.5,3.5,0,1,0-6.9,0,3.5,3.5,0,1,0,6.9,0Z" fill="#efefef"/><path d="M54.3,11.1c0,2.5-1.8,4.3-5.1,4.3H41.1V.4h7.5c3.3,0,5.1,1.8,5.1,4.3a3.6,3.6,0,0,1-1.4,3A3.7,3.7,0,0,1,54.3,11.1ZM45.3,4V6.1h2.8c.8,0,1.3-.3,1.3-1S48.9,4,48.1,4Zm4.6,6.6c0-.7-.5-1.1-1.3-1.1H45.3v2.2h3.3C49.4,11.7,49.9,11.3,49.9,10.6Z" fill="#efefef"/><path d="M71.4,4.7H66.9V15.4H62.4V4.7H57.9V.4H71.4Z" fill="#efefef"/><path d="M75,7.9a7.9,7.9,0,0,1,15.9,0A7.9,7.9,0,0,1,75,7.9Zm11.4,0a3.5,3.5,0,1,0-6.9,0,3.5,3.5,0,1,0,6.9,0Z" fill="#efefef"/><path d="M112.6,7.9c0,4.5-3.2,7.9-7.2,7.9a5.6,5.6,0,0,1-4.5-1.8v7.4H96.4V.4h4.5V1.8A5.6,5.6,0,0,1,105.4,0C109.3,0,112.6,3.4,112.6,7.9Zm-4.5,0a3.6,3.6,0,1,0-7.1,0,3.6,3.6,0,1,0,7.1,0Z" fill="#efefef"/></g></g></svg>