<svg xmlns="http://www.w3.org/2000/svg" viewBox="0 0 113.2 21.4"><title>simple</title><g id="Слой_2" data-name="Слой 2"><g id="Слой_1-2" data-name="Слой 1"><path d="M14.1,15.4H9.6V4.6H4.5V15.4H0V.4H14.1Z" fill="#efefef"/><path d="M36.5,7.9c0,4.5-3.2,7.9-7.2,7.9A5.6,5.6,0,0,1,24.9,14v7.4H20.4V.4h4.5V1.8A5.6,5.6,0,0,1,29.4,0C33.3,0,36.5,3.4,36.5,7.9ZM32,7.9a3.4,3.4,0,0,0-3.6-3.7,3.4,3.4,0,0,0-3.6,3.7,3.4,3.4,0,0,0,3.6,3.7A3.4,3.4,0,0,0,32,7.9Z" fill="#efefef"/><path d="M41.3,7.9a7.9,7.9,0,0,1,15.9,0,7.9,7.9,0,0,1-15.9,0Zm11.4,0a3.5,3.5,0,1,0-6.9,0,3.5,3.5,0,1,0,6.9,0Z" fill="#efefef"/><path d="M62,7.9A7.9,7.9,0,0,1,76.8,3.8L72.8,6.1a3.1,3.1,0,0,0-2.9-1.7,3.3,3.3,0,0,0-3.4,3.5,3.3,3.3,0,0,0,3.4,3.5,3.1,3.1,0,0,0,2.9-1.7L76.8,12A7.7,7.7,0,0,1,70,15.8,7.8,7.8,0,0,1,62,7.9Z" fill="#efefef"/><path d="M93.7,4.7H89.2V15.4H84.7V4.7H80.2V.4H93.7Z" fill="#efefef"/><path d="M97.3,7.9a7.9,7.9,0,0,1,15.9,0,7.9,7.9,0,0,1-15.9,0Zm11.4,0a3.5,3.5,0,1,0-6.9,0,3.5,3.5,0,1,0,6.9,0Z" fill="#efefef"/></g></g></svg>