<svg xmlns="http://www.w3.org/2000/svg" viewBox="0 0 160.93 91.78"><title>vk</title><g id="Слой_2" data-name="Слой 2"><g id="Var2"><g id="Иконки"><path id="vk_alt" data-name="vk alt" d="M78.76,91.38h9.62s2.9-.32,4.39-1.92a6.35,6.35,0,0,0,1.32-4.22s-.19-12.9,5.8-14.81,13.49,12.47,21.52,18c6.08,4.17,10.69,3.26,10.69,3.26l21.49-.3s11.24-.69,5.91-9.53c-.44-.72-3.11-6.54-16-18.49C130,50.86,131.83,52.89,148.06,31.25,158,18.07,161.88,10,160.69,6.55c-1.18-3.28-8.45-2.42-8.45-2.42L128,4.28a5.6,5.6,0,0,0-3.12.55,6.8,6.8,0,0,0-2.13,2.6,141.65,141.65,0,0,1-8.91,18.9C103.08,44.62,98.77,45.55,97,44.45c-4.1-2.65-3.07-10.64-3.07-16.31,0-17.73,2.69-25.12-5.24-27C86.07.51,84.13.09,77.41,0,68.78-.07,61.47,0,57.33,2.07c-2.75,1.35-4.88,4.35-3.58,4.52,1.6.21,5.22,1,7.14,3.59,2.48,3.37,2.39,11,2.39,11S64.7,42,60,44.59c-3.26,1.78-7.74-1.85-17.34-18.45A153.53,153.53,0,0,1,34,8.24a7.31,7.31,0,0,0-2-2.7A10.23,10.23,0,0,0,28.25,4l-23,.15S1.8,4.29.53,5.79C-.6,7.13.44,9.89.44,9.89S18.44,52,38.82,73.23C57.51,92.69,78.73,91.41,78.73,91.41Z"/></g></g></g></svg>