<svg xmlns="http://www.w3.org/2000/svg" viewBox="0 0 327.65 44.02"><defs><style>.cls-1{fill:#2429ff;}</style></defs><title>Ресурс 1</title><g id="Слой_2" data-name="Слой 2"><g id="Слой_1-2" data-name="Слой 1"><path class="cls-1" d="M8.69,18a9.71,9.71,0,0,1,5.86,2,41.16,41.16,0,0,1,4.87,5.35c4.4,5.73,8.47,11.75,15,15.34a27.49,27.49,0,0,0,23.78,1.1c7.1-3,11.64-8.85,16.16-14.85,3.11-4.12,6-8.38,11-9a11.43,11.43,0,0,1,5.38,1.12c2.08,1.11,3.88,3.21,5.9,5.74,3.36,4.2,7.92,10.83,13.35,14.61a27.39,27.39,0,0,0,22.87,3.49c7.48-2.21,12.72-7.61,17.31-13.61,1.78-2.32,3.21-4.39,4.63-6a28.82,28.82,0,0,1,3.38-3.43c-.87.7,2.83-1.56,1.77-1.13a9.12,9.12,0,0,1,7.39-.16,14.72,14.72,0,0,1,2.57,1.52c-.9-.67.31.34.39.41A29.83,29.83,0,0,1,172.57,23c3.49,3.94,7.14,10.12,12,14.2,13.15,11.11,30.73,7.58,41.11-5.24,3.87-4.78,6.88-10.38,11.31-12.83a9.63,9.63,0,0,1,11.53,2.1c4.49,4.67,7.77,10.89,13.25,15.67a27.87,27.87,0,0,0,26.2,6.07c8.19-2.39,13.56-8.64,18.51-15.18a43.39,43.39,0,0,1,6.1-7.22A9.34,9.34,0,0,1,319,18c11.56-.32,11.61-18.32,0-18a28.86,28.86,0,0,0-20.51,9.14c-4.85,5-7.31,10.46-12.22,14.66a9.74,9.74,0,0,1-11.69.35c-.57-.4-4-4-4.5-4.71-2.32-2.92-4.4-6-6.85-8.86C252.43-1.83,234.51-3.48,222.24,7.8c-4.82,4.43-7.92,10.23-11.86,14.34-3.09,3.22-7.49,5-11.36,3.25-4.9-2.26-7.74-7.69-11.54-12.51C183.12,7.36,177.62,2.49,170.59.82a27.62,27.62,0,0,0-23.56,5C142,9.8,137.84,16.34,134.42,20.32c-3.69,4.31-6.67,6.7-11.87,5.39-4.11-1-7.43-6-10.63-10.22-4.59-6-9.57-11.54-17-14.08a27.56,27.56,0,0,0-23,2.64C65.69,7.92,61.05,15.32,57.18,20c-4,4.8-8.35,7.68-13.28,5.44-5.35-2.44-8.42-8.85-12.78-14C25.32,4.41,17.82.26,8.69,0-2.9-.31-2.89,17.69,8.69,18Z"/></g></g></svg>